<svg width="44" height="44" viewBox="0 0 44 44" fill="none" xmlns="http://www.w3.org/2000/svg">
<rect width="44" height="44" fill="#F1F2F6"/>
<path d="M6.94043 5.71699C7.78756 5.68409 8.43515 5.78311 9.26554 5.81021C10.4511 5.84917 11.6372 5.87045 12.8234 5.87411C13.3023 5.87396 13.9707 5.90463 14.4244 5.85498C16.3599 5.64319 18.2958 5.37173 19.9709 4.30445C20.529 3.94884 21.0881 3.38198 21.6664 3.12755C21.8167 3.06143 22.4901 3.7436 22.6112 3.86284C23.4763 4.77392 24.626 5.08494 25.7929 5.39658C29.1983 6.30596 32.7258 5.75341 36.1787 5.69244L36.1791 5.72299C36.1942 7.28994 36.1764 8.88938 36.1763 10.4587L36.1677 20.8248L36.1607 25.0116C36.1592 25.8198 36.2037 27.2936 36.0353 28.0117C35.7599 29.1853 34.8372 30.907 33.9945 31.7633C33.9306 31.7939 33.8768 31.8264 33.8071 31.8341L33.8896 31.6871L33.8618 31.6761C33.6459 31.8859 33.474 32.0973 33.2387 32.3177C33.3087 32.3231 33.317 32.3128 33.3818 32.2774C33.3702 32.3428 33.366 32.3601 33.3432 32.4224C33.2842 32.5057 32.2947 33.3536 32.1685 33.4387C31.2161 34.0814 30.2307 34.7017 29.2404 35.2836L26.6504 36.8348C25.9411 37.2523 25.1197 37.716 24.4373 38.1577C23.4797 38.7774 22.554 39.7138 21.6641 40.4095C21.29 40.2245 20.9178 39.8546 20.5862 39.5954C19.9379 39.0886 19.2896 38.5852 18.6126 38.1166C17.2671 37.185 15.8774 36.3171 14.5007 35.4331C14.1031 35.1776 13.6941 34.9433 13.2991 34.6826C12.614 34.2304 11.9382 33.7266 11.2949 33.2168C10.9323 32.9295 10.5899 32.6189 10.2346 32.3228C9.9377 32.0758 9.62201 31.8456 9.34667 31.574C8.69971 30.9361 7.35431 29.1394 7.06015 28.2989C6.87242 27.7625 6.96737 24.8669 6.9678 24.0539L6.96494 11.4611L6.96679 7.72255C6.96723 7.20599 6.99446 6.18311 6.94043 5.71699ZM8.47119 7.07709C8.52652 8.85883 8.48694 10.8463 8.48949 12.6474L8.5205 23.13L8.53562 25.7559C8.53721 26.0822 8.51602 27.4406 8.60765 27.6465C9.47049 29.5853 11.1781 31.3526 12.8624 32.6125C14.8277 34.0826 16.9887 35.2699 18.9569 36.7412C19.7682 37.341 20.5522 37.987 21.3452 38.6106C21.4358 38.683 21.5306 38.7759 21.6331 38.8274C22.3345 38.2595 23.0335 37.6821 23.7234 37.1C24.2692 36.6392 24.7537 36.3937 25.3509 36.0229L28.5811 34.0275C29.472 33.4808 30.6105 32.796 31.3906 32.0891C31.699 31.8096 31.9967 31.5378 32.3134 31.2686C33.0678 30.4633 33.8993 29.347 34.2431 28.2761C34.6582 26.9829 34.6446 25.1577 34.6444 23.8162L34.6451 21.0831L34.6461 11.6637L34.6451 9.02857C34.6437 8.41387 34.6179 7.70711 34.702 7.106C33.7723 7.09828 32.8425 7.11587 31.9138 7.15868C31.2991 7.18356 30.5518 7.25634 29.951 7.25927C28.848 7.26463 27.6142 7.18093 26.5216 7.04621C26.2578 7.01367 25.9203 6.90347 25.6544 6.85867C24.8117 6.71668 23.9816 6.43865 23.2395 6.00526C22.8234 5.76225 22.1685 5.1408 21.7955 4.80338C21.708 4.72422 21.7245 4.66683 21.5927 4.61778C18.4357 7.91273 14.0456 7.15474 9.9137 7.11257C9.45066 7.10785 8.92446 7.13152 8.47119 7.07709Z" fill="black"/>
<path d="M28.4084 13.5012C28.9123 13.5333 29.6599 13.5098 30.1818 13.5095C30.2438 14.7776 30.2133 16.1821 30.2129 17.4588V23.7741C30.2128 24.5357 30.1629 25.6274 30.1926 26.3498C29.67 26.3241 28.9355 26.3336 28.4085 26.3427L28.4125 17.2542C27.6958 17.2554 26.3805 17.2226 25.7306 17.33C22.462 18.0698 22.6508 20.7941 22.6514 23.4917L22.6412 26.3491C22.1282 26.317 21.4022 26.3387 20.8733 26.3401C20.8634 25.129 20.8606 23.9179 20.865 22.7068C20.864 21.1101 20.9201 19.4317 19.689 18.2381C18.4594 17.0458 16.7331 17.2497 15.1479 17.2555C15.0743 17.4218 15.112 25.479 15.1011 26.3499C14.5445 26.3058 13.9125 26.369 13.3275 26.3184C13.3612 26.0464 13.3346 25.5057 13.3326 25.2085L13.3276 23.1337L13.3293 15.7392C13.3294 15.4125 13.312 13.6849 13.374 13.509L15.082 13.5068C15.1336 13.8419 15.1258 15.1492 15.1163 15.5273C17.3743 15.5614 19.6883 15.2613 21.2394 17.3026C21.3719 17.4769 21.5998 18.0427 21.7747 18.0856C21.9542 18.0179 22.0156 17.7017 22.126 17.553C22.6346 16.8682 23.2466 16.2903 24.0473 15.9684C24.0886 15.9519 24.4389 15.8136 24.4517 15.8043C24.9591 15.437 28.1959 15.6148 28.394 15.4799C28.4371 15.0787 28.4095 13.9582 28.4084 13.5012Z" fill="black"/>
<path d="M33.3428 32.4224C33.3657 32.36 33.3699 32.3428 33.3814 32.2774C33.3166 32.3128 33.3084 32.3231 33.2383 32.3176C33.4737 32.0973 33.6455 31.8858 33.8614 31.676L33.8892 31.687L33.8068 31.8341C33.8764 31.8264 33.9302 31.7939 33.9941 31.7632C33.8251 31.9849 33.5704 32.2596 33.3428 32.4224Z" fill="black" fill-opacity="0.952941"/>
</svg>
